HIERARCHY
ROOT Hips
{
	OFFSET	0.00	0.00	0.00
	CHANNELS 6 Xposition Yposition Zposition Zrotation Xrotation Yrotation
	JOINT LeftUpperLeg
	{
		OFFSET	 0.100000	-0.066564	-0.000554
		CHANNELS 3 Zrotation Xrotation Yrotation
		JOINT LeftLowerLeg
		{
			OFFSET	 0.002447	-0.463436	-0.005172
			CHANNELS 3 Zrotation Xrotation Yrotation
			JOINT LeftFoot
			{
				OFFSET	-0.002447	-0.420480	-0.020576
				CHANNELS 3 Zrotation Xrotation Yrotation
				JOINT LeftToes
				{
					OFFSET	 0.003734	-0.104922	 0.126407
					CHANNELS 3 Zrotation Xrotation Yrotation
					End Site
					{
						OFFSET	 0.000000	 0.000000	 0.059955
					}
				}
			}
		}
	}
	JOINT RightUpperLeg
	{
		OFFSET	-0.100000	-0.066564	-0.000554
		CHANNELS 3 Zrotation Xrotation Yrotation
		JOINT RightLowerLeg
		{
			OFFSET	-0.002447	-0.463436	-0.005146
			CHANNELS 3 Zrotation Xrotation Yrotation
			JOINT RightFoot
			{
				OFFSET	 0.002447	-0.420479	-0.020602
				CHANNELS 3 Zrotation Xrotation Yrotation
				JOINT RightToes
				{
					OFFSET	-0.003734	-0.104922	 0.126407
					CHANNELS 3 Zrotation Xrotation Yrotation
					End Site
					{
						OFFSET	-0.000000	 0.000000	 0.059955
					}
				}
			}
		}
	}
	JOINT Spine
	{
		OFFSET	 0.000000	 0.099235	-0.012273
		CHANNELS 3 Zrotation Xrotation Yrotation
		JOINT Chest
		{
			OFFSET	-0.000001	 0.116455	-0.014223
			CHANNELS 3 Zrotation Xrotation Yrotation
			JOINT UpperChest
			{
				OFFSET	 0.000001	 0.133602	-0.016265
				CHANNELS 3 Zrotation Xrotation Yrotation
				JOINT LeftShoulder
				{
					OFFSET	 0.061058	 0.091105	 0.007056
					CHANNELS 3 Zrotation Xrotation Yrotation
					JOINT LeftUpperArm
					{
						OFFSET	 0.133942	-0.002659	-0.026009
						CHANNELS 3 Zrotation Xrotation Yrotation
						JOINT LeftLowerArm
						{
							OFFSET	 0.274047	 0.000000	 0.000000
							CHANNELS 3 Zrotation Xrotation Yrotation
							JOINT LeftHand
							{
								OFFSET	 0.276145	 0.000000	 0.000000
								CHANNELS 3 Zrotation Xrotation Yrotation
								End Site
								{
									OFFSET	 0.165687	 0.000000	 0.000000
								}
							}
						}
					}
				}
				JOINT Neck
				{
					OFFSET	 0.000000	 0.150325	 0.007929
					CHANNELS 3 Zrotation Xrotation Yrotation
					JOINT Head
					{
						OFFSET	 0.000000	 0.103218	 0.031424
						CHANNELS 3 Zrotation Xrotation Yrotation
						End Site
						{
							OFFSET	 0.000000	 0.061931	 0.018855
						}
					}
				}
				JOINT RightShoulder
				{
					OFFSET	-0.061057	 0.091105	 0.007056
					CHANNELS 3 Zrotation Xrotation Yrotation
					JOINT RightUpperArm
					{
						OFFSET	-0.133943	-0.002660	-0.026009
						CHANNELS 3 Zrotation Xrotation Yrotation
						JOINT RightLowerArm
						{
							OFFSET	-0.274047	 0.000000	 0.000000
							CHANNELS 3 Zrotation Xrotation Yrotation
							JOINT RightHand
							{
								OFFSET	-0.276145	 0.000000	 0.000000
								CHANNELS 3 Zrotation Xrotation Yrotation
								End Site
								{
									OFFSET	-0.165687	 0.000000	 0.000000
								}
							}
						}
					}
				}
			}
		}
	}
}
MOTION
Frames:    6
Frame Time: 0.03333334
-0.378740	 1.046080	-0.518610	-1.078583	-1.064724	 7.906056	 9.896498	 1.204527	 12.439640	-0.004246	 13.422240	-0.009199	-6.644403	-10.241400	 9.741850	 0.000426	 0.365545	 0.365697	-0.165348	-4.734002	-18.837130	 0.029067	 18.206820	 0.006870	-0.421825	-12.186260	-6.201064	 0.000650	 0.308956	 0.008416	 2.190949	-1.414850	-3.314704	-0.000000	 0.000000	 0.000000	 4.307811	-2.959785	-6.591279	 18.438620	-17.448230	 13.329980	-32.672310	-32.434890	-70.874240	-16.423660	-36.431130	-34.358310	 34.040650	-48.661930	 30.994580	 8.134279	 5.814518	-42.337480	 8.207266	 6.005229	-42.422200	-12.619510	-22.151150	-13.794270	 23.393860	-19.230660	 74.606770	-5.497820	-22.112320	 28.436700	-31.496250	-21.000950	-10.707910
-0.370980	 1.048150	-0.519120	-0.212505	-1.182313	 6.766462	 7.779618	 3.605120	 10.941490	 0.005755	 9.490265	-0.007655	-5.583562	-9.012200	 12.801630	-0.001123	 0.366295	 0.410447	-1.345258	-4.274086	-18.149400	 0.001517	 17.539130	 0.010621	-0.251029	-11.621110	-5.690022	-0.000009	 0.208906	 0.000225	 2.028503	-1.364412	-3.228648	-0.000000	 0.000000	 0.000000	 3.986488	-2.847318	-6.421942	 17.492140	-15.793320	 11.708160	-28.919010	-31.882040	-62.931940	-23.637550	-32.255860	-46.450420	 31.449690	-49.536270	 24.553280	 7.117482	 5.649096	-42.624900	 7.272216	 5.480913	-42.700740	-12.496520	-21.264920	-11.587560	 22.121440	-17.716200	 68.180300	-3.151552	-21.477270	 38.037790	-32.164340	-20.944600	-11.927100
-0.367370	 1.049070	-0.519570	 0.023858	-1.311621	 6.289182	 6.974977	 5.009411	 9.812284	-0.042530	 7.132852	-0.002975	-5.078827	-8.222875	 14.531170	-0.000093	 0.366550	 0.420813	-1.703060	-4.001484	-17.636930	 0.016554	 17.162520	 0.008309	-0.123485	-11.326070	-5.690871	-0.000963	 0.286593	-0.000163	 2.032609	-1.294138	-3.199492	-0.000000	 0.000000	 0.000000	 3.998767	-2.704932	-6.366561	 17.062080	-15.596530	 11.336780	-29.057030	-30.699810	-59.852750	-27.030510	-28.896890	-52.560820	 29.390440	-49.832490	 20.664850	 6.720246	 5.331438	-42.786500	 6.728354	 5.183671	-42.823060	-12.014440	-20.511620	-10.389070	 22.476000	-17.366080	 65.131520	-1.751569	-20.357530	 43.185220	-31.722830	-20.229420	-11.365800
-0.367370	 1.049070	-0.519570	 0.023858	-1.311621	 6.289182	 6.974977	 5.009411	 9.812284	-0.042530	 7.132852	-0.002975	-5.078827	-8.222875	 14.531170	-0.000093	 0.366550	 0.420813	-1.703060	-4.001484	-17.636930	 0.016554	 17.162520	 0.008309	-0.123485	-11.326070	-5.690871	-0.000963	 0.286593	-0.000163	 2.032609	-1.294138	-3.199492	-0.000000	 0.000000	 0.000000	 3.998767	-2.704932	-6.366561	 17.062080	-15.596530	 11.336780	-29.057030	-30.699810	-59.852750	-27.030510	-28.896890	-52.560820	 29.390440	-49.832490	 20.664850	 6.720246	 5.331438	-42.786500	 6.728354	 5.183671	-42.823060	-12.014440	-20.511620	-10.389070	 22.476000	-17.366080	 65.131520	-1.751569	-20.357530	 43.185220	-31.722830	-20.229420	-11.365800
-0.363130	 1.049840	-0.520970	 0.317856	-1.363135	 5.783245	 6.011170	 6.871352	 9.587991	-0.001235	 3.621076	-0.003027	-4.839616	-6.794472	 15.394440	 0.000198	 0.364737	 0.397468	-2.197608	-3.910093	-17.181200	-0.002119	 16.890010	 0.010978	 0.241442	-11.065130	-5.592969	-0.000281	 0.341609	 0.000312	 2.053520	-1.182396	-3.163804	-0.000000	 0.000000	 0.000000	 4.048149	-2.482376	-6.300015	 16.584230	-15.278860	 10.782150	-29.973740	-30.173610	-56.623910	-30.386510	-24.813730	-57.970540	 26.425710	-50.096540	 16.362110	 6.118585	 5.096426	-42.783260	 6.096809	 4.864720	-42.823470	-11.733010	-19.797550	-9.319745	 23.595730	-16.824450	 62.451500	-1.254974	-18.508370	 47.690160	-31.240300	-19.428130	-10.915980
-0.357370	 1.050640	-0.523420	 0.589378	-1.334466	 5.290669	 4.987263	 8.486878	 8.980167	 0.000320	 0.329394	-0.000569	-4.641726	-5.629442	 16.854770	 0.000105	 0.361769	 0.330873	-2.759922	-4.039367	-16.467850	 0.023740	 16.727950	 0.007928	 0.329116	-10.665250	-5.815376	 0.000261	 0.299098	-0.000041	 2.081003	-1.073101	-3.137647	-0.000000	 0.000000	 0.000000	 4.109233	-2.263746	-6.250246	 16.212500	-14.386350	 9.477630	-31.624120	-29.726270	-52.221360	-33.351930	-18.976280	-64.302430	 24.464700	-49.054680	 12.242790	 5.538149	 4.617469	-42.738670	 5.504449	 4.390550	-42.764400	-11.490730	-19.252410	-7.601971	 25.433830	-15.996970	 58.307300	-0.515462	-15.735440	 53.770330	-31.610090	-17.709220	-11.120210
